<?xml version="1.0" encoding="utf-8"?>
<!-- Generator: Adobe Illustrator 19.2.1, SVG Export Plug-In . SVG Version: 6.00 Build 0)  -->
<svg version="1.1" xmlns="http://www.w3.org/2000/svg" xmlns:xlink="http://www.w3.org/1999/xlink" x="0px" y="0px"
	 viewBox="0 0 576 576" style="enable-background:new 0 0 576 576;" xml:space="preserve">
<style type="text/css">
	.st0{fill:#999999;}
	.st1{fill:#8DC63F;}
	.st2{fill:#FFFFFF;}
</style>
<g id="Layer_1">
	<rect x="0.5" width="576" height="576"/>
	<path class="st0" d="M266,304.8c-8.3,0-15.1-6.7-15.1-15.1c0-8.3,6.7-15.1,15.1-15.1c5.8,0,10.9,3.3,13.4,8.2l7-3.6
		c-3.8-7.4-11.5-12.4-20.4-12.4c-12.7,0-23,10.3-23,23c0,12.7,10.3,23,23,23c8.9,0,16.6-5.1,20.4-12.4l-7-3.6
		C276.8,301.5,271.8,304.8,266,304.8z"/>
	<path class="st0" d="M328.5,269.4v20.4c0,8.5-3.4,15.1-13.4,15.1c-10,0-13.4-6.6-13.4-15.1v-20.4h-7.9v20.4v0c0,13,6.1,23,21.3,23
		c15.2,0,21.3-10,21.3-23v0v-20.4H328.5z"/>
	<g>
		<path class="st1" d="M221.5,298.1l-16.7-16.7c-4.6,4.6-4.6,12.1,0,16.7C209.4,302.7,216.9,302.7,221.5,298.1z"/>
		<g>
			<path class="st2" d="M229.3,273.5c-9-9-23.5-9-32.5,0c-9,9-9,23.5,0,32.5c4.5,4.5,10.4,6.7,16.3,6.7h0h23l-6.7-6.7c0,0,0,0,0,0
				l-5.6-5.6c-5.9,5.9-15.4,5.9-21.3,0c-5.9-5.9-5.9-15.4,0-21.3c5.9-5.9,15.4-5.9,21.3,0c5.1,5.1,5.8,12.9,2,18.7l5.7,5.7
				C238.2,294.5,237.5,281.7,229.3,273.5z"/>
		</g>
	</g>
	<path class="st0" d="M389.7,291.2c0-0.5,0.1-1,0.1-1.5c0-12.7-10.3-23-23-23s-23,10.3-23,23c0,12.7,10.3,23,23,23
		c9.4,0,17.4-5.6,21-13.6h-9.2c-2.8,3.5-7,5.7-11.8,5.7c-7.8,0-14.3-6-15-13.6H389.7z M366.8,274.7c6,0,11.2,3.5,13.6,8.6h-27.2
		C355.6,278.2,360.7,274.7,366.8,274.7z"/>
</g>
<g id="Layer_2">
	<g>
		<path class="st0" d="M214.5,333.6v4.8h-2.6v-13.7h4.5c0.9,0,1.7,0.1,2.4,0.3c0.7,0.2,1.2,0.5,1.7,0.9c0.4,0.4,0.8,0.8,1,1.4
			c0.2,0.5,0.3,1.1,0.3,1.8c0,0.7-0.1,1.3-0.3,1.8c-0.2,0.6-0.6,1-1,1.4c-0.4,0.4-1,0.7-1.7,0.9c-0.7,0.2-1.4,0.3-2.3,0.3H214.5z
			 M214.5,331.6h1.9c0.5,0,0.9-0.1,1.2-0.2c0.3-0.1,0.6-0.3,0.9-0.5c0.2-0.2,0.4-0.5,0.5-0.8c0.1-0.3,0.2-0.7,0.2-1.1
			c0-0.4-0.1-0.7-0.2-1c-0.1-0.3-0.3-0.6-0.5-0.8c-0.2-0.2-0.5-0.4-0.9-0.5c-0.3-0.1-0.8-0.2-1.2-0.2h-1.9V331.6z"/>
		<path class="st0" d="M229.2,333.1v5.4h-2.6v-13.7h4.2c0.9,0,1.7,0.1,2.4,0.3c0.7,0.2,1.2,0.5,1.6,0.8c0.4,0.3,0.7,0.8,0.9,1.2
			c0.2,0.5,0.3,1,0.3,1.6c0,0.5-0.1,0.9-0.2,1.3c-0.1,0.4-0.3,0.8-0.6,1.1c-0.3,0.3-0.6,0.6-0.9,0.9c-0.4,0.3-0.8,0.5-1.3,0.6
			c0.3,0.2,0.6,0.4,0.8,0.8l3.4,5.1h-2.3c-0.2,0-0.4,0-0.6-0.1c-0.2-0.1-0.3-0.2-0.4-0.4l-2.9-4.4c-0.1-0.2-0.2-0.3-0.4-0.4
			c-0.1-0.1-0.3-0.1-0.6-0.1H229.2z M229.2,331.2h1.6c0.5,0,0.9-0.1,1.3-0.2c0.4-0.1,0.7-0.3,0.9-0.5c0.2-0.2,0.4-0.5,0.5-0.8
			c0.1-0.3,0.2-0.6,0.2-1c0-0.7-0.2-1.2-0.7-1.6s-1.2-0.6-2.1-0.6h-1.6V331.2z"/>
		<path class="st0" d="M244.7,338.4h-2.6v-13.7h2.6V338.4z"/>
		<path class="st0" d="M260.1,335.2c0.1,0,0.3,0.1,0.4,0.2l1,1.1c-0.6,0.7-1.2,1.2-2.1,1.6c-0.8,0.4-1.8,0.6-2.9,0.6
			c-1,0-1.9-0.2-2.8-0.5c-0.8-0.3-1.5-0.8-2.1-1.5c-0.6-0.6-1-1.4-1.3-2.2c-0.3-0.9-0.5-1.8-0.5-2.8c0-1,0.2-2,0.5-2.8
			c0.3-0.9,0.8-1.6,1.4-2.2c0.6-0.6,1.4-1.1,2.2-1.4c0.9-0.3,1.8-0.5,2.9-0.5c1,0,1.9,0.2,2.7,0.5c0.8,0.3,1.4,0.8,2,1.3l-0.9,1.2
			c-0.1,0.1-0.1,0.1-0.2,0.2c-0.1,0.1-0.2,0.1-0.3,0.1c-0.1,0-0.3-0.1-0.4-0.2c-0.2-0.1-0.3-0.2-0.6-0.4c-0.2-0.1-0.5-0.3-0.9-0.4
			c-0.4-0.1-0.8-0.2-1.4-0.2c-0.6,0-1.2,0.1-1.8,0.3c-0.5,0.2-1,0.5-1.4,1c-0.4,0.4-0.7,0.9-0.9,1.5c-0.2,0.6-0.3,1.3-0.3,2
			c0,0.8,0.1,1.5,0.3,2.1c0.2,0.6,0.5,1.1,0.9,1.5c0.4,0.4,0.8,0.7,1.3,0.9c0.5,0.2,1.1,0.3,1.6,0.3c0.3,0,0.7,0,0.9-0.1
			c0.3,0,0.5-0.1,0.8-0.2c0.2-0.1,0.5-0.2,0.7-0.3c0.2-0.1,0.4-0.3,0.6-0.5c0.1-0.1,0.1-0.1,0.2-0.1
			C260,335.2,260,335.2,260.1,335.2z"/>
		<path class="st0" d="M274.9,324.7v2h-6.1v3.8h4.8v2h-4.8v3.9h6.1v2h-8.7v-13.7H274.9z"/>
		<path class="st0" d="M286.5,338.4v-13.7h4.7c0.9,0,1.7,0.1,2.3,0.3c0.6,0.2,1.2,0.4,1.6,0.7c0.4,0.3,0.7,0.7,0.9,1.2
			c0.2,0.4,0.3,1,0.3,1.5c0,0.3,0,0.6-0.1,0.9c-0.1,0.3-0.2,0.6-0.4,0.8c-0.2,0.3-0.5,0.5-0.8,0.7c-0.3,0.2-0.7,0.4-1.1,0.5
			c1.9,0.4,2.8,1.4,2.8,3.1c0,0.6-0.1,1.1-0.3,1.6c-0.2,0.5-0.5,0.9-1,1.3c-0.4,0.4-0.9,0.6-1.6,0.8c-0.6,0.2-1.3,0.3-2.1,0.3H286.5
			z M289.1,330.7h2c0.9,0,1.5-0.2,2-0.5c0.5-0.3,0.7-0.8,0.7-1.5c0-0.7-0.2-1.2-0.6-1.5c-0.4-0.3-1-0.5-1.9-0.5h-2.2V330.7z
			 M289.1,332.4v4h2.6c0.5,0,0.9-0.1,1.2-0.2c0.3-0.1,0.6-0.3,0.8-0.5c0.2-0.2,0.3-0.4,0.4-0.7c0.1-0.3,0.1-0.5,0.1-0.8
			c0-0.3,0-0.6-0.1-0.8c-0.1-0.2-0.2-0.4-0.4-0.6c-0.2-0.2-0.5-0.3-0.8-0.4c-0.3-0.1-0.7-0.1-1.1-0.1H289.1z"/>
		<path class="st0" d="M310.4,324.7v2h-6.1v3.8h4.8v2h-4.8v3.9h6.1v2h-8.7v-13.7H310.4z"/>
		<path class="st0" d="M325.1,324.7v2.1H321v11.6h-2.6v-11.6h-4.2v-2.1H325.1z"/>
		<path class="st0" d="M339.3,324.7v2.1h-4.1v11.6h-2.6v-11.6h-4.2v-2.1H339.3z"/>
		<path class="st0" d="M352.4,324.7v2h-6.1v3.8h4.8v2h-4.8v3.9h6.1v2h-8.7v-13.7H352.4z"/>
		<path class="st0" d="M360.1,333.1v5.4h-2.6v-13.7h4.2c0.9,0,1.7,0.1,2.4,0.3c0.7,0.2,1.2,0.5,1.6,0.8c0.4,0.3,0.7,0.8,0.9,1.2
			c0.2,0.5,0.3,1,0.3,1.6c0,0.5-0.1,0.9-0.2,1.3s-0.3,0.8-0.6,1.1c-0.3,0.3-0.6,0.6-1,0.9c-0.4,0.3-0.8,0.5-1.3,0.6
			c0.3,0.2,0.6,0.4,0.8,0.8l3.4,5.1H366c-0.2,0-0.4,0-0.6-0.1c-0.2-0.1-0.3-0.2-0.4-0.4l-2.9-4.4c-0.1-0.2-0.2-0.3-0.4-0.4
			c-0.1-0.1-0.3-0.1-0.6-0.1H360.1z M360.1,331.2h1.6c0.5,0,0.9-0.1,1.3-0.2c0.4-0.1,0.7-0.3,0.9-0.5c0.2-0.2,0.4-0.5,0.5-0.8
			c0.1-0.3,0.2-0.6,0.2-1c0-0.7-0.2-1.2-0.7-1.6s-1.2-0.6-2.1-0.6h-1.6V331.2z"/>
	</g>
</g>
</svg>
